<svg width="33" height="29" xmlns="http://www.w3.org/2000/svg" xmlns:xlink="http://www.w3.org/1999/xlink" xmlns:svgjs="http://svgjs.com/svgjs" viewBox="0.446 0 32.107 29"><svg xmlns="http://www.w3.org/2000/svg" width="33" height="29" viewBox="1.5 2 31 28" fill="#95e1d3"><path fill="#95E1D3" paint-order="stroke fill markers" fill-rule="evenodd" d="M31 25h-7.5-2v2.5l2 2v.5h-13v-.5l2-2V25h-2H3a1.5 1.5 0 0 1-1.5-1.5v-20A1.5 1.5 0 0 1 3 2h28a1.5 1.5 0 0 1 1.5 1.5v20A1.5 1.5 0 0 1 31 25zm-.5-21h-27v17h27V4zM14 11c.414 0 .79.168 1.06.439l.94.94 2.94-2.94a1.5 1.5 0 1 1 2.121 2.121l-4 4a1.496 1.496 0 0 1-2.122 0l-2-2A1.5 1.5 0 0 1 14 11z"/></svg></svg>